<svg xmlns="http://www.w3.org/2000/svg" width="48" height="48" viewBox="0 0 48 48" fill="none">
  <defs>
    <linearGradient id="ytFace" x1="24" y1="7" x2="24" y2="43" gradientUnits="userSpaceOnUse">
      <stop stop-color="#FFD64F"/>
      <stop offset="1" stop-color="#F4B000"/>
    </linearGradient>
  </defs>
  <path d="M24 8V3.5" stroke="#EDA800" stroke-width="2.6" stroke-linecap="round"/>
  <circle cx="24" cy="2.6" r="2.8" fill="#FF5C8A"/>
  <rect x="1.8" y="19" width="5.6" height="11" rx="2.8" fill="#F0AE00"/>
  <rect x="40.6" y="19" width="5.6" height="11" rx="2.8" fill="#F0AE00"/>
  <rect x="4.5" y="6.5" width="39" height="36" rx="14.5" fill="url(#ytFace)" stroke="#E09E00" stroke-width="1.4"/>
  <ellipse cx="13.5" cy="31" rx="3.6" ry="2.3" fill="#FF7BA5" opacity="0.5"/>
  <ellipse cx="34.5" cy="31" rx="3.6" ry="2.3" fill="#FF7BA5" opacity="0.5"/>
  <ellipse cx="17.5" cy="24" rx="4.7" ry="5.6" fill="#FFFFFF"/>
  <ellipse cx="30.5" cy="24" rx="4.7" ry="5.6" fill="#FFFFFF"/>
  <circle cx="18.7" cy="24.7" r="2.7" fill="#2A2113"/>
  <circle cx="31.7" cy="24.7" r="2.7" fill="#2A2113"/>
  <circle cx="17.5" cy="23.3" r="1" fill="#FFFFFF"/>
  <circle cx="30.5" cy="23.3" r="1" fill="#FFFFFF"/>
  <path d="M19 33C21.3 36 26.7 36 29 33" stroke="#2A2113" stroke-width="2.3" stroke-linecap="round"/>
</svg>
